<?xml version="1.0" encoding="UTF-8" standalone="no"?>
<!-- Created with Inkscape (http://www.inkscape.org/) -->
<svg xmlns:dc="http://purl.org/dc/elements/1.1/" xmlns:cc="http://creativecommons.org/ns#" xmlns:rdf="http://www.w3.org/1999/02/22-rdf-syntax-ns#" xmlns:svg="http://www.w3.org/2000/svg" xmlns="http://www.w3.org/2000/svg" xmlns:xlink="http://www.w3.org/1999/xlink" xmlns:sodipodi="http://sodipodi.sourceforge.net/DTD/sodipodi-0.dtd" xmlns:inkscape="http://www.inkscape.org/namespaces/inkscape" width="400" height="400" id="svg4106" version="1.1" inkscape:version="0.48.3.1 r9886" sodipodi:docname="pet bottle.svg">
  <title id="title5225">PET bottle</title>
  <defs id="defs4108">
    <linearGradient inkscape:collect="always" id="linearGradient5207">
      <stop style="stop-color:#0099ff;stop-opacity:1;" offset="0" id="stop5209"/>
      <stop style="stop-color:#0099ff;stop-opacity:0;" offset="1" id="stop5211"/>
    </linearGradient>
    <linearGradient inkscape:collect="always" id="linearGradient5157">
      <stop style="stop-color:#3e9ade;stop-opacity:1;" offset="0" id="stop5159"/>
      <stop style="stop-color:#3e9ade;stop-opacity:0;" offset="1" id="stop5161"/>
    </linearGradient>
    <inkscape:path-effect effect="skeletal" id="path-effect4874" is_visible="true" pattern="m 309.78723,61.957448 0,10 10,-5 z" copytype="single_stretched" prop_scale="1" scale_y_rel="false" spacing="0" normal_offset="0" tang_offset="0" prop_units="false" vertical_pattern="false" fuse_tolerance="0"/>
    <inkscape:path-effect fuse_tolerance="0" vertical_pattern="false" prop_units="false" tang_offset="0" normal_offset="0" spacing="0" scale_y_rel="false" prop_scale="1" copytype="single_stretched" pattern="m 108.42553,56.794327 0,10 10,-5 z" is_visible="true" id="path-effect4870" effect="skeletal"/>
    <inkscape:path-effect effect="skeletal" id="path-effect4850" is_visible="true" pattern="M 0,0 0,10 10,5 z" copytype="single_stretched" prop_scale="1" scale_y_rel="false" spacing="0" normal_offset="0" tang_offset="0" prop_units="false" vertical_pattern="false" fuse_tolerance="0"/>
    <inkscape:path-effect effect="skeletal" id="path-effect4846" is_visible="true" pattern="M 0,0 0,10 10,5 z" copytype="single_stretched" prop_scale="1" scale_y_rel="false" spacing="0" normal_offset="0" tang_offset="0" prop_units="false" vertical_pattern="false" fuse_tolerance="0"/>
    <linearGradient inkscape:collect="always" id="linearGradient4836">
      <stop style="stop-color:#ffffff;stop-opacity:1;" offset="0" id="stop4838"/>
      <stop style="stop-color:#ffffff;stop-opacity:0;" offset="1" id="stop4840"/>
    </linearGradient>
    <inkscape:path-effect fuse_tolerance="0" vertical_pattern="false" prop_units="false" tang_offset="0" normal_offset="0" spacing="0" scale_y_rel="false" prop_scale="1" copytype="single_stretched" pattern="M 0,0 0,10 10,5 z" is_visible="true" id="path-effect4828" effect="skeletal"/>
    <inkscape:path-effect effect="skeletal" id="path-effect4814" is_visible="true" pattern="M 0,0 0,10 10,5 z" copytype="single_stretched" prop_scale="1" scale_y_rel="false" spacing="0" normal_offset="0" tang_offset="0" prop_units="false" vertical_pattern="false" fuse_tolerance="0"/>
    <inkscape:path-effect effect="skeletal" id="path-effect4798" is_visible="true" pattern="M 0,0 0,10 10,5 z" copytype="single_stretched" prop_scale="1" scale_y_rel="false" spacing="0" normal_offset="0" tang_offset="0" prop_units="false" vertical_pattern="false" fuse_tolerance="0"/>
    <inkscape:path-effect effect="skeletal" id="path-effect4794" is_visible="true" pattern="M 0,0 0,10 10,5 z" copytype="single_stretched" prop_scale="1" scale_y_rel="false" spacing="0" normal_offset="0" tang_offset="0" prop_units="false" vertical_pattern="false" fuse_tolerance="0"/>
    <inkscape:path-effect effect="skeletal" id="path-effect4790" is_visible="true" pattern="M 0,0 0,10 10,5 z" copytype="single_stretched" prop_scale="1" scale_y_rel="false" spacing="0" normal_offset="0" tang_offset="0" prop_units="false" vertical_pattern="false" fuse_tolerance="0"/>
    <linearGradient id="linearGradient4782" inkscape:collect="always">
      <stop id="stop4784" offset="0" style="stop-color:#ffffff;stop-opacity:1"/>
      <stop id="stop4786" offset="1" style="stop-color:#e0e6e9;stop-opacity:1"/>
    </linearGradient>
    <inkscape:path-effect fuse_tolerance="0" vertical_pattern="false" prop_units="false" tang_offset="0" normal_offset="0" spacing="0" scale_y_rel="false" prop_scale="1" copytype="single_stretched" pattern="M 28,0 28,10 38,5 z" is_visible="true" id="path-effect4780" effect="skeletal"/>
    <inkscape:path-effect fuse_tolerance="0" vertical_pattern="false" prop_units="false" tang_offset="0" normal_offset="0" spacing="0" scale_y_rel="false" prop_scale="1" copytype="single_stretched" pattern="M 28,0 28,10 38,5 z" is_visible="true" id="path-effect4778" effect="skeletal"/>
    <inkscape:path-effect fuse_tolerance="0" vertical_pattern="false" prop_units="false" tang_offset="0" normal_offset="0" spacing="0" scale_y_rel="false" prop_scale="1" copytype="single_stretched" pattern="M 28,0 28,10 38,5 z" is_visible="true" id="path-effect4776" effect="skeletal"/>
    <inkscape:path-effect effect="skeletal" id="path-effect4744" is_visible="true" pattern="M 0,0 0,10 10,5 z" copytype="single_stretched" prop_scale="1" scale_y_rel="false" spacing="0" normal_offset="0" tang_offset="0" prop_units="false" vertical_pattern="false" fuse_tolerance="0"/>
    <inkscape:path-effect effect="skeletal" id="path-effect4740" is_visible="true" pattern="M 0,0 0,10 10,5 z" copytype="single_stretched" prop_scale="1" scale_y_rel="false" spacing="0" normal_offset="0" tang_offset="0" prop_units="false" vertical_pattern="false" fuse_tolerance="0"/>
    <inkscape:path-effect effect="skeletal" id="path-effect4724" is_visible="true" pattern="M 0,0 0,10 10,5 z" copytype="single_stretched" prop_scale="1" scale_y_rel="false" spacing="0" normal_offset="0" tang_offset="0" prop_units="false" vertical_pattern="false" fuse_tolerance="0"/>
    <inkscape:path-effect effect="skeletal" id="path-effect4720" is_visible="true" pattern="M 0,0 0,10 10,5 z" copytype="single_stretched" prop_scale="1" scale_y_rel="false" spacing="0" normal_offset="0" tang_offset="0" prop_units="false" vertical_pattern="false" fuse_tolerance="0"/>
    <inkscape:path-effect effect="skeletal" id="path-effect4716" is_visible="true" pattern="M 0,0 0,10 10,5 z" copytype="single_stretched" prop_scale="1" scale_y_rel="false" spacing="0" normal_offset="0" tang_offset="0" prop_units="false" vertical_pattern="false" fuse_tolerance="0"/>
    <linearGradient inkscape:collect="always" id="linearGradient4706">
      <stop style="stop-color:#0083d7;stop-opacity:1;" offset="0" id="stop4708"/>
      <stop style="stop-color:#0083d7;stop-opacity:0;" offset="1" id="stop4710"/>
    </linearGradient>
    <linearGradient inkscape:collect="always" id="linearGradient4672">
      <stop style="stop-color:#ffffff;stop-opacity:1" offset="0" id="stop4674"/>
      <stop style="stop-color:#0099ff;stop-opacity:1" offset="1" id="stop4676"/>
    </linearGradient>
    <linearGradient inkscape:collect="always" id="linearGradient4664">
      <stop style="stop-color:#3e9ade;stop-opacity:1;" offset="0" id="stop4666"/>
      <stop style="stop-color:#3e9ade;stop-opacity:0;" offset="1" id="stop4668"/>
    </linearGradient>
    <linearGradient inkscape:collect="always" xlink:href="#linearGradient4672" id="linearGradient4694" gradientUnits="userSpaceOnUse" x1="244.6088" y1="297.45612" x2="861.60712" y2="297.45612" gradientTransform="matrix(0.25,0,0,0.25,106.02669,214.68417)"/>
    <radialGradient inkscape:collect="always" xlink:href="#linearGradient4782" id="radialGradient4700" cx="-631.06183" cy="276.17834" fx="-631.06183" fy="276.17834" r="250.56522" gradientTransform="matrix(0.29932075,0.00366448,-0.00593779,0.48500483,372.71255,186.26868)" gradientUnits="userSpaceOnUse"/>
    <radialGradient inkscape:collect="always" xlink:href="#linearGradient4664" id="radialGradient4702" cx="-650.55322" cy="935.38007" fx="-650.55322" fy="935.38007" r="249.97141" gradientTransform="matrix(0.2633493,1.0071744e-8,0,0.17891344,357.37781,279.62999)" gradientUnits="userSpaceOnUse"/>
    <radialGradient inkscape:collect="always" xlink:href="#linearGradient4706" id="radialGradient4712" cx="-640.22693" cy="-3.3898859" fx="-640.22693" fy="-3.3898859" r="250.56522" gradientTransform="matrix(0.00515145,0.32454285,-0.7334367,0.01164179,189.44846,310.16428)" gradientUnits="userSpaceOnUse"/>
    <filter inkscape:collect="always" id="filter4746" x="-0.074244194" width="1.1484884" y="-3.0666537" height="7.1333075" color-interpolation-filters="sRGB">
      <feGaussianBlur inkscape:collect="always" stdDeviation="12.777724" id="feGaussianBlur4748"/>
    </filter>
    <filter inkscape:collect="always" id="filter4750" x="-0.072422929" width="1.1448458" y="-3.0175433" height="7.0350866" color-interpolation-filters="sRGB">
      <feGaussianBlur inkscape:collect="always" stdDeviation="12.777724" id="feGaussianBlur4752"/>
    </filter>
    <filter inkscape:collect="always" id="filter4754" x="-0.18584895" width="1.3716979" y="-0.094028778" height="1.1880575" color-interpolation-filters="sRGB">
      <feGaussianBlur inkscape:collect="always" stdDeviation="12.777724" id="feGaussianBlur4756"/>
    </filter>
    <filter inkscape:collect="always" id="filter4758" x="-0.16077656" width="1.3215531" y="-0.097017564" height="1.1940351" color-interpolation-filters="sRGB">
      <feGaussianBlur inkscape:collect="always" stdDeviation="12.777724" id="feGaussianBlur4760"/>
    </filter>
    <filter inkscape:collect="always" id="filter4762" x="-0.16070545" width="1.3214109" y="-0.098772258" height="1.1975445" color-interpolation-filters="sRGB">
      <feGaussianBlur inkscape:collect="always" stdDeviation="12.777724" id="feGaussianBlur4764"/>
    </filter>
    <filter inkscape:collect="always" id="filter4800" x="-0.041506115" width="1.0830122" y="-0.35785046" height="1.7157009" color-interpolation-filters="sRGB">
      <feGaussianBlur inkscape:collect="always" stdDeviation="2.513612" id="feGaussianBlur4802"/>
    </filter>
    <filter inkscape:collect="always" id="filter4804" x="-0.038812209" width="1.0776244" y="-0.28409937" height="1.5681987" color-interpolation-filters="sRGB">
      <feGaussianBlur inkscape:collect="always" stdDeviation="2.513612" id="feGaussianBlur4806"/>
    </filter>
    <filter inkscape:collect="always" id="filter4808" x="-0.03336582" width="1.0667316" y="-0.59363633" height="2.1872725" color-interpolation-filters="sRGB">
      <feGaussianBlur inkscape:collect="always" stdDeviation="2.513612" id="feGaussianBlur4810"/>
    </filter>
    <filter inkscape:collect="always" id="filter4832" x="-0.16278261" width="1.3255652" y="-0.17135012" height="1.3427002" color-interpolation-filters="sRGB">
      <feGaussianBlur inkscape:collect="always" stdDeviation="14.007771" id="feGaussianBlur4834"/>
    </filter>
    <filter inkscape:collect="always" id="filter4860" x="-2.6955588" width="6.3911176" y="-0.053822614" height="1.1076452" color-interpolation-filters="sRGB">
      <feGaussianBlur inkscape:collect="always" stdDeviation="11.231495" id="feGaussianBlur4862"/>
    </filter>
    <filter inkscape:collect="always" id="filter4864" x="-2.6523781" width="6.3047562" y="-0.058653433" height="1.1173069" color-interpolation-filters="sRGB">
      <feGaussianBlur inkscape:collect="always" stdDeviation="11.231495" id="feGaussianBlur4866"/>
    </filter>
    <linearGradient inkscape:collect="always" xlink:href="#linearGradient4836" id="linearGradient4896" gradientUnits="userSpaceOnUse" x1="-609.24823" y1="-41.475178" x2="-557.617" y2="113.41844"/>
    <radialGradient inkscape:collect="always" xlink:href="#linearGradient4706" id="radialGradient5153" gradientUnits="userSpaceOnUse" gradientTransform="matrix(0.00515145,0.32454285,-0.7334367,0.01164179,189.44846,310.16428)" cx="-640.22693" cy="-3.3898859" fx="-640.22693" fy="-3.3898859" r="250.56522"/>
    <radialGradient inkscape:collect="always" xlink:href="#linearGradient5157" id="radialGradient5165" cx="110.88647" cy="305.09122" fx="110.88647" fy="305.09122" r="63.163673" gradientTransform="matrix(0.05779962,-0.80068448,2.8984835,0.21237533,-710.00516,475.97286)" gradientUnits="userSpaceOnUse"/>
    <filter inkscape:collect="always" id="filter5171" x="-1.1993229" width="3.3986456" y="-0.023947055" height="1.0478941" color-interpolation-filters="sRGB">
      <feGaussianBlur inkscape:collect="always" stdDeviation="4.9971786" id="feGaussianBlur5173"/>
    </filter>
    <filter inkscape:collect="always" id="filter5175" x="-0.73401445" width="2.468029" y="-0.016231649" height="1.0324633" color-interpolation-filters="sRGB">
      <feGaussianBlur inkscape:collect="always" stdDeviation="3.1081843" id="feGaussianBlur5177"/>
    </filter>
    <filter inkscape:collect="always" id="filter5201" x="-0.11001506" width="1.2200301" y="-0.34142604" height="1.6828521" color-interpolation-filters="sRGB">
      <feGaussianBlur inkscape:collect="always" stdDeviation="7.5309659" id="feGaussianBlur5203"/>
    </filter>
    <radialGradient inkscape:collect="always" xlink:href="#linearGradient5207" id="radialGradient5213" cx="142.38423" cy="312.81573" fx="142.38423" fy="312.81573" r="62.641304" gradientTransform="matrix(0.08742335,-0.90337478,2.9204726,0.28262714,-720.66834,507.83976)" gradientUnits="userSpaceOnUse"/>
    <filter inkscape:collect="always" id="filter5215" color-interpolation-filters="sRGB">
      <feGaussianBlur inkscape:collect="always" stdDeviation="4.2858814" id="feGaussianBlur5217"/>
    </filter>
    <radialGradient inkscape:collect="always" xlink:href="#linearGradient4782" id="radialGradient5221" gradientUnits="userSpaceOnUse" gradientTransform="matrix(0.29932075,0.00366448,-0.00593779,0.48500483,372.71255,186.26868)" cx="-631.06183" cy="276.17834" fx="-631.06183" fy="276.17834" r="250.56522"/>
    <linearGradient inkscape:collect="always" xlink:href="#linearGradient4836" id="linearGradient5223" gradientUnits="userSpaceOnUse" x1="-609.24823" y1="-41.475178" x2="-557.617" y2="113.41844"/>
  </defs>
  <sodipodi:namedview id="base" pagecolor="#ffffff" bordercolor="#666666" borderopacity="1.0" inkscape:pageopacity="0.0" inkscape:pageshadow="2" inkscape:zoom="0.27390675" inkscape:cx="175.67894" inkscape:cy="195.12207" inkscape:current-layer="layer1" inkscape:document-units="px" showgrid="false" inkscape:window-width="1366" inkscape:window-height="706" inkscape:window-x="-8" inkscape:window-y="-8" inkscape:window-maximized="1"/>
  <g id="layer1" inkscape:label="Layer 1" inkscape:groupmode="layer" transform="translate(0,-80)">
    <path sodipodi:type="arc" style="opacity:0.1504425;fill:#333366;fill-opacity:1;stroke:#ffffff;stroke-width:1.79999995;stroke-linecap:round;stroke-miterlimit:4;stroke-opacity:1;stroke-dasharray:none;stroke-dashoffset:0;filter:url(#filter5201)" id="path5187" sodipodi:cx="130.51888" sodipodi:cy="432.5386" sodipodi:rx="82.144745" sodipodi:ry="26.468863" d="m 212.66362,432.5386 a 82.144745,26.468863 0 1 1 -164.28949,0 82.144745,26.468863 0 1 1 164.28949,0 z" transform="matrix(0.80660262,0,0,0.72473783,86.381494,140.45581)"/>
    <path sodipodi:nodetypes="cccccccccccccccccccccsscccccccccssccccccccccccccccccccccc" inkscape:connector-curvature="0" id="path5155" d="m 171.41115,99.43501 44.16347,1.14914 -0.46094,3.21129 3.19527,1.15701 -2.73433,2.52652 -0.46094,0.92089 2.96871,0.91301 -2.50777,2.99091 -0.46094,7.13094 2.74216,1.14914 0.45311,3.21916 1.42967,1.63713 c 0.0583,-0.0117 0.1134,-0.0197 0.17188,-0.0315 l 1.82029,11.95574 c -0.74183,0.0395 -1.47027,0.0674 -2.2031,0.10232 l 0,10.92468 -2.02341,0 c 23.27812,19.12833 37.08031,45.0604 37.53856,77.70844 0,11.5765 -2.29155,21.77848 -6.38272,30.21602 l 0,123.39846 2.18747,-0.0551 c 0,0 1.3172,12.86177 1.82809,19.30708 0.75234,9.49136 2.76164,19.03384 1.82029,28.50806 -1.16142,11.68936 -9.12488,34.02549 -9.12488,34.02549 l -17.34352,2.75477 -10.95297,-7.3592 -2.73435,8.28008 -8.21864,3.67568 -27.39313,-0.0544 -11.06884,-13.46454 -11.34205,11.68508 -17.34352,-3.68354 c 0,0 -5.55795,-22.82338 -8.12595,-35.75053 -2.03784,-10.2584 -2.25484,-22.90635 -0.47551,-33.21346 0.74642,-4.32364 5.4765,-11.95574 5.4765,-11.95574 l 38.44481,-0.92089 -37.90575,0 0,-124.26425 c -4.09118,-8.43753 -6.38273,-18.63951 -6.38273,-30.21602 1.57927,-40.38097 12.43278,-55.18107 36.99951,-79.92013 l 0,-10.39733 c -1.04673,-0.0811 -2.08972,-0.165 -3.12495,-0.25187 l 4.32025,-11.2946 -0.66405,-0.8894 -0.46094,-2.76265 3.19527,-2.29828 0,-4.13217 -2.05466,-1.84177 2.05466,-1.84176 0.22656,-0.92089 -2.96089,-2.75478 3.19526,-2.29827 0,-1.14914 -1.14061,-0.69263 1.36717,-0.92089 0.45313,-3.21128 z" style="opacity:0.69026549;fill:url(#radialGradient5165);fill-opacity:1;stroke:#89c5ff;stroke-width:0.451673;stroke-linecap:round;stroke-miterlimit:4;stroke-opacity:1;stroke-dasharray:none;stroke-dashoffset:0"/>
    <path style="fill:url(#linearGradient4694);fill-opacity:1;stroke:#fdddcd;stroke-width:0;stroke-linecap:round;stroke-miterlimit:4;stroke-opacity:1;stroke-dasharray:none;stroke-dashoffset:0" d="m 209.39389,99.43418 -40.16406,1.14062 0.46093,3.1875 -3.19531,1.14844 2.73438,2.50781 0.46093,0.91407 -2.96875,0.90625 2.50782,2.96874 0.46093,7.07813 -2.74218,1.14062 -0.45313,3.19532 -1.42969,1.625 c -0.0583,-0.0116 -0.11339,-0.0196 -0.17187,-0.0312 l -1.82031,11.86718 c 0.74183,0.0392 1.47028,0.0669 2.20312,0.10156 l 0,10.84375 2.02344,0 c -23.27844,18.98664 -37.08082,44.72662 -37.53907,77.13281 0,11.49075 2.29158,21.61716 6.38281,29.99219 l 0,122.48438 -2.1875,-0.0547 c 0,0 -1.31723,12.76649 -1.82813,19.16406 -0.75235,9.42105 -2.76166,18.89284 -1.82031,28.29688 1.16145,11.60277 9.125,33.77344 9.125,33.77344 l 17.34375,2.73437 10.95314,-7.30469 2.73437,8.21875 8.21875,3.64845 16.42188,0.91405 9.13281,-13.6875 18.25,10.95313 17.34375,-3.65625 c 0,0 9.29916,-24.59048 11.86719,-37.42188 2.03787,-10.18241 4.51373,-20.80049 2.73437,-31.03125 -0.74641,-4.29162 -5.47656,-11.86718 -5.47656,-11.86718 l -38.44531,-0.91407 37.90625,0 0,-123.34375 c 4.09123,-8.37503 6.38281,-18.50144 6.38281,-29.99219 -1.57929,-40.08185 -16.43295,-54.77231 -41,-79.32812 l 0,-10.32031 c 1.04674,-0.0805 2.08975,-0.16377 3.125,-0.25 l -4.32031,-11.21094 0.66406,-0.88281 0.46094,-2.74219 -3.19532,-2.28125 0,-4.10156 2.05469,-1.82812 -2.05469,-1.82813 -0.22656,-0.91406 2.96094,-2.73437 -3.19531,-2.28125 0,-1.14063 1.14062,-0.6875 -1.36719,-0.91406 -0.45312,-3.1875 z" id="rect4125" inkscape:connector-curvature="0"/>
    <path inkscape:connector-curvature="0" id="path4696" d="m 175.41087,99.43418 40.16406,1.14062 -0.46094,3.1875 3.19531,1.14844 -2.73437,2.50781 -0.46094,0.91407 2.96875,0.90625 -2.50781,2.96874 -0.46094,7.07813 2.74219,1.14062 0.45312,3.19532 1.42969,1.625 c 0.0583,-0.0116 0.1134,-0.0196 0.17188,-0.0312 l 1.82031,11.86718 c -0.74184,0.0392 -1.47029,0.0669 -2.20313,0.10156 l 0,10.84375 -2.02343,0 c 23.27843,18.98664 37.0808,44.72662 37.53906,77.13281 0,11.49075 -2.29158,21.61716 -6.38281,29.99219 l 0,122.48438 2.1875,-0.0547 c 0,0 1.31722,12.76649 1.82812,19.16406 0.75235,9.42105 2.76167,18.89284 1.82031,28.29688 -1.16144,11.60277 -9.125,33.77344 -9.125,33.77344 l -17.34375,2.73437 -10.95312,-7.30469 -2.73438,8.21875 -8.21875,3.64845 -16.42187,0.91405 -9.13281,-13.6875 -18.25001,10.95313 -17.34375,-3.65625 c 0,0 -9.29916,-24.59048 -11.86719,-37.42188 -2.03787,-10.18241 -4.51374,-20.80049 -2.73438,-31.03125 0.74642,-4.29162 5.47657,-11.86718 5.47657,-11.86718 l 38.44532,-0.91407 -37.90626,0 0,-123.34375 c -4.09123,-8.37503 -6.38281,-18.50144 -6.38281,-29.99219 1.57929,-40.08185 16.43295,-54.77231 41.00001,-79.32812 l 0,-10.32031 c -1.04675,-0.0805 -2.08975,-0.16377 -3.125,-0.25 l 4.32031,-11.21094 -0.66406,-0.88281 -0.46094,-2.74219 3.19531,-2.28125 0,-4.10156 -2.05469,-1.82812 2.05469,-1.82813 0.22656,-0.91406 -2.96093,-2.73437 3.19531,-2.28125 0,-1.14063 -1.14063,-0.6875 1.36719,-0.91406 0.45313,-3.1875 z" style="fill:url(#radialGradient5221);fill-opacity:1;stroke:#89c5ff;stroke-width:0.44999999;stroke-linecap:round;stroke-miterlimit:4;stroke-opacity:1;stroke-dasharray:none;stroke-dashoffset:0"/>
    <path style="fill:url(#radialGradient4702);fill-opacity:1;stroke:#000000;stroke-width:0;stroke-linecap:butt;stroke-linejoin:miter;stroke-miterlimit:4;stroke-opacity:1;stroke-dasharray:none" d="m 130.98331,381.61092 c 0,0 -4.7299,7.57373 -5.47632,11.86536 -1.77936,10.23076 0.70029,20.85004 2.73816,31.03246 2.56803,12.83139 11.86536,37.42149 11.86536,37.42149 l 17.34166,3.65088 18.2544,-10.95263 9.1272,13.69077 16.42894,-0.9127 8.21448,-3.65088 2.73816,-8.21448 10.95263,7.30176 17.34167,-2.73816 c 0,0 7.96575,-22.16784 9.12719,-33.77062 0.94136,-9.40404 -1.07309,-18.87325 -1.82544,-28.2943 -0.5109,-6.39757 -1.82543,-19.1671 -1.82543,-19.1671 z" id="path4143" inkscape:connector-curvature="0" sodipodi:nodetypes="csscccccccccsscc"/>
    <path style="fill:url(#radialGradient4712);fill-opacity:1;stroke:#fdddcd;stroke-width:0;stroke-linecap:round;stroke-miterlimit:4;stroke-opacity:1;stroke-dasharray:none;stroke-dashoffset:0" d="m 175.41087,99.43418 40.16406,1.14062 -0.46094,3.1875 3.19531,1.14844 -2.73437,2.50781 -0.46094,0.91407 2.96875,0.90625 -2.50781,2.96874 -0.46094,7.07813 2.74219,1.14062 0.45312,3.19532 1.42969,1.625 c 0.0583,-0.0116 0.1134,-0.0196 0.17188,-0.0312 l 1.82031,11.86718 c -0.74184,0.0392 -1.47029,0.0669 -2.20313,0.10156 l 0,10.84375 -2.02343,0 c 23.27843,18.98664 37.0808,44.72662 37.53906,77.13281 0,11.49075 -2.29158,21.61716 -6.38281,29.99219 l 0,122.48438 2.1875,-0.0547 c 0,0 1.31722,12.76649 1.82812,19.16406 0.75235,9.42105 2.76167,18.89284 1.82031,28.29688 -1.16144,11.60277 -9.125,33.77344 -9.125,33.77344 l -17.34375,2.73437 -10.95312,-7.30469 -2.73438,8.21875 -8.21875,3.64845 -16.42187,0.91405 -9.13281,-13.6875 -18.25001,10.95313 -17.34375,-3.65625 c 0,0 -9.29916,-24.59048 -11.86719,-37.42188 -2.03787,-10.18241 -4.51374,-20.80049 -2.73438,-31.03125 0.74642,-4.29162 5.47657,-11.86718 5.47657,-11.86718 l 38.44532,-0.91407 -37.90626,0 0,-123.34375 c -4.09123,-8.37503 -6.38281,-18.50144 -6.38281,-29.99219 1.57929,-40.08185 16.43295,-54.77231 41.00001,-79.32812 l 0,-10.32031 c -1.04675,-0.0805 -2.08975,-0.16377 -3.125,-0.25 l 4.32031,-11.21094 -0.66406,-0.88281 -0.46094,-2.74219 3.19531,-2.28125 0,-4.10156 -2.05469,-1.82812 2.05469,-1.82813 0.22656,-0.91406 -2.96093,-2.73437 3.19531,-2.28125 0,-1.14063 -1.14063,-0.6875 1.36719,-0.91406 0.45313,-3.1875 z" id="path4704" inkscape:connector-curvature="0"/>
    <path style="fill:#ffffff;fill-opacity:1;fill-rule:evenodd;stroke:none;filter:url(#filter4762)" d="m -825.88833,81.749718 9.90432,1.379992 c 3.72601,-29.884189 13.25967,-59.082016 27.03867,-86.142806 13.31224,-26.158071 30.37032,-50.443114 48.40103,-73.956696 10e-6,-2e-6 10e-6,-5e-6 10e-6,-7e-6 18.39034,-23.971721 37.8373,-47.247731 56.0241,-71.517921 1e-5,0 1e-5,0 1e-5,0 18.64566,-24.87855 35.95502,-50.90718 49.45636,-78.8598 -14.26129,27.57264 -32.21964,53.01586 -51.47511,77.30359 0,10e-6 0,10e-6 -10e-6,2e-5 -18.7873,23.69354 -38.83017,46.38701 -57.95817,69.954515 0,5e-6 0,9e-6 -10e-6,1.4e-5 -18.7676,23.113302 -36.67896,47.202044 -51.06053,73.5914332 -14.89942,27.3549118 -25.5683,57.2100378 -30.33067,88.2476658 z" id="path4714" inkscape:connector-curvature="0" transform="matrix(0.25,0,0,0.25,348.69337,222.42885)"/>
    <path style="fill:#ffffff;fill-opacity:1;fill-rule:evenodd;stroke:none;filter:url(#filter4758)" d="m -712.21529,70.971185 9.73554,2.284576 c 3.73089,-16.933737 8.71556,-33.597529 15.12141,-49.707513 5.67858,-14.2870645 12.48808,-28.1483918 20.27105,-41.462163 0,-3e-6 0,-6e-6 0,-8e-6 14.27683,-24.447147 31.98254,-46.934819 50.17249,-69.015859 0,-5e-6 10e-6,-9e-6 10e-6,-1.4e-5 18.21577,-22.096154 36.79705,-44.112954 52.79414,-68.006904 18.20901,-27.20367 32.75091,-56.82008 42.64547,-87.90018 -10.73241,30.80082 -26.02615,59.88857 -44.82723,86.39685 -16.51875,23.2956 -35.58254,44.66347 -54.41009,66.2929 0,5e-6 -10e-6,9e-6 -10e-6,1.4e-5 -18.83985,21.628586 -37.31934,43.853309 -52.62946,68.460724 -8.32771,13.397419 -15.69572,27.4200528 -21.93722,41.959254 -7.03434,16.392351 -12.63177,33.390627 -16.9361,50.698323 z" id="path4718" inkscape:connector-curvature="0" transform="matrix(0.25,0,0,0.25,348.69337,222.42885)"/>
    <path style="fill:#ffffff;fill-opacity:1;fill-rule:evenodd;stroke:none;filter:url(#filter4754)" d="m -614.17313,91.902631 9.8498,1.726648 c 2.77045,-17.170746 7.22329,-34.083536 13.57548,-50.269956 5.57343,-14.216151 12.63057,-27.886535 20.82301,-40.8705081 0,-2.6e-6 0,-5.2e-6 0,-7.7e-6 15.04009,-23.8694662 34.06518,-45.2814802 52.58876,-67.1350972 9.02691,-10.641359 17.92566,-21.460856 26.09048,-32.852343 0,-2e-6 1e-5,-5e-6 1e-5,-7e-6 8.32919,-11.62012 15.85658,-23.85296 22.01482,-36.76298 6.68386,-14.01647 11.70639,-28.79139 14.97285,-43.92152 3.85279,-17.85174 5.31171,-36.13178 5.06643,-54.3275 -0.24528,18.19572 -2.19683,36.38381 -6.50068,53.99764 -3.64616,14.92631 -9.01411,29.40717 -15.97688,43.04831 -6.41291,12.56789 -14.16303,24.4216 -22.69007,35.671206 -10e-6,5e-6 -10e-6,1e-5 -2e-5,1.5e-5 -8.36256,11.032055 -17.46726,21.506836 -26.74213,31.865823 -19.06656,21.279144 -38.7958,42.339155 -54.94995,66.4319015 -1e-5,5.2e-6 -1e-5,1.04e-5 -1e-5,1.56e-5 -8.77722,13.1074609 -16.43949,27.0173399 -22.62819,41.6175849 -7.04013,16.623837 -12.14523,34.045564 -15.49371,51.780775 z" id="path4722" inkscape:connector-curvature="0" transform="matrix(0.25,0,0,0.25,348.69337,222.42885)"/>
    <path style="fill:#ffffff;fill-opacity:1;fill-rule:evenodd;stroke:none;filter:url(#filter4750)" d="m -841.52769,123.90817 -0.12194,9.99926 423.43686,0.16349 z" id="path4738" inkscape:connector-curvature="0" transform="matrix(0.25,0,0,0.25,348.69337,222.42885)"/>
    <path style="fill:#ffffff;fill-opacity:1;fill-rule:evenodd;stroke:none;filter:url(#filter4746)" d="m -841.58866,629.89362 0,10 413.04965,-5 z" id="path4742" inkscape:connector-curvature="0" transform="matrix(0.25,0,0,0.25,348.69337,222.42885)"/>
    <path style="opacity:0.71238942;fill:#ffffff;fill-opacity:1;fill-rule:evenodd;stroke:none" d="m 153.8401,238.90929 2.47608,0.345 c 0.82455,-6.70343 2.95341,-13.25881 6.0368,-19.33836 2.97913,-5.87741 6.80303,-11.33915 10.84704,-16.63004 0,0 0,0 0,0 4.12485,-5.39393 8.48901,-10.63371 12.56983,-16.0969 0,0 0,0 0,0 4.18386,-5.60014 8.06682,-11.45874 11.09234,-17.74727 -3.21551,6.19353 -7.26072,11.90579 -11.59702,17.35821 0,1e-5 -1e-5,1e-5 -1e-5,1e-5 -4.23094,5.31903 -8.74408,10.41318 -13.05334,15.70605 0,0 0,0 -10e-6,0 -4.22823,5.19082 -8.26545,10.60349 -11.5119,16.53873 -3.36351,6.15308 -5.77617,12.87279 -6.85981,19.86457 z" id="path4766" inkscape:connector-curvature="0"/>
    <path style="opacity:0.71238942;fill:#ffffff;fill-opacity:1;fill-rule:evenodd;stroke:none" d="m 179.3959,236.47488 2.43388,0.57114 c 0.83148,-3.80198 1.94431,-7.54378 3.37642,-11.16174 1.26945,-3.20855 2.79319,-6.32254 4.53593,-9.31442 0,0 0,0 0,0 3.19641,-5.4937 7.1669,-10.55223 11.2478,-15.52174 0,0 1e-5,0 1e-5,0 4.08719,-4.97309 8.25817,-9.93064 11.84774,-15.30953 4.08592,-6.12414 7.34546,-12.78856 9.55919,-19.77887 -2.4232,6.92049 -5.8707,13.45275 -10.10463,19.40304 -3.71998,5.2293 -8.0116,10.02462 -12.25173,14.88102 0,1e-5 0,1e-5 0,1e-5 -4.24339,4.85639 -8.40732,9.84919 -11.86204,15.38295 -1e-5,0 -1e-5,0 -1e-5,0 -1.87893,3.01279 -3.54229,6.16711 -4.95247,9.43869 -1.58923,3.68855 -2.85525,7.51397 -3.83009,11.40945 z" id="path4768" inkscape:connector-curvature="0"/>
    <path style="opacity:0.71238942;fill:#ffffff;fill-opacity:1;fill-rule:evenodd;stroke:none" d="m 201.4343,241.18729 2.46245,0.43166 c 0.61551,-3.85286 1.60829,-7.64844 3.02759,-11.28163 1.24515,-3.19095 2.82397,-6.26103 4.65826,-9.17826 0,0 0,0 0,0 3.36697,-5.36304 7.63493,-10.18089 11.79219,-15.10081 2.02612,-2.39573 4.02396,-4.8323 5.85692,-7.39763 0,0 0,0 0,0 1.86991,-2.61687 3.55926,-5.37158 4.94042,-8.27806 1.49901,-3.15563 2.62372,-6.48073 3.35324,-9.88455 0.86042,-4.01606 1.18218,-8.12656 1.12086,-12.21696 -0.0613,4.0904 -0.50624,8.17791 -1.47942,12.1345 -0.82444,3.35286 -2.03551,6.60445 -3.60425,9.66624 -1.44483,2.82095 -3.18986,5.48088 -5.10923,8.00512 0,0 -1e-5,0 -1e-5,0 -1.88239,2.47548 -3.93172,4.82586 -6.01983,7.151 -4.293,4.7763 -8.737,9.50615 -12.38248,14.92501 -1.98049,2.94811 -3.71059,6.07806 -5.10956,9.36503 -1.59129,3.74255 -2.74713,7.66536 -3.50715,11.65934 z" id="path4770" inkscape:connector-curvature="0"/>
    <path style="opacity:0.71238942;fill:#ffffff;fill-opacity:1;fill-rule:evenodd;stroke:none" d="m 138.31144,253.4059 -0.0305,2.49981 105.85922,0.0408 z" id="path4772" inkscape:connector-curvature="0"/>
    <path style="opacity:0.71238942;fill:#ffffff;fill-opacity:1;fill-rule:evenodd;stroke:none" d="m 138.29619,379.90226 0,2.5 103.26243,-1.25 z" id="path4774" inkscape:connector-curvature="0"/>
    <path style="opacity:0.78318583;fill:#deffff;fill-rule:evenodd;stroke:none;filter:url(#filter4808)" d="m -717.57912,-351.09839 -0.18928,9.9982 c 31.22136,-0.27009 62.46263,-0.89447 93.65666,-2.3927 29.14057,-1.39757 58.33947,-3.35716 87.1472,-7.76953 -29.00746,2.81453 -58.13338,3.14811 -87.2458,2.93971 -31.1389,-0.22576 -62.25539,-1.32549 -93.36878,-2.77568 z" id="path4788" inkscape:connector-curvature="0" transform="matrix(0.25,0,0,0.25,348.69337,222.42885)"/>
    <path style="opacity:0.78318583;fill:#deffff;fill-rule:evenodd;stroke:none;filter:url(#filter4804)" d="m -706.80889,-402.7014 -1.07726,9.9418 c 27.72852,2.11235 55.43421,-0.23061 82.38033,-5.41792 24.52036,-4.71767 48.50011,-11.17248 73.05192,-15.04234 -24.74895,2.29274 -49.25992,7.22226 -73.80328,10.33372 -26.88824,3.40306 -54.08204,3.94511 -80.55171,0.18474 z" id="path4792" inkscape:connector-curvature="0" transform="matrix(0.25,0,0,0.25,348.69337,222.42885)"/>
    <path style="opacity:0.78318583;fill:#deffff;fill-rule:evenodd;stroke:none;filter:url(#filter4800)" d="m -680.75521,-443.97477 -1.55342,9.8786 c 13.02128,1.59719 26.04725,1.83885 38.93989,1.39661 13.51123,-0.45927 26.94137,-1.68708 40.26622,-3.43045 0,0 0,0 0,0 12.42986,-1.62563 24.78418,-3.70316 37.03308,-6.21597 9.78404,-2.00686 19.52103,-4.26733 29.1049,-7.01573 -9.74972,2.085 -19.58447,3.66572 -29.44813,4.99318 -12.34392,1.66073 -24.73218,2.87763 -37.13215,3.64048 -1e-5,0 -1e-5,0 -1e-5,0 -13.29374,0.81719 -26.59335,1.11692 -39.82357,0.65645 -1e-5,0 -1e-5,0 -1e-5,0 -12.63621,-0.44339 -25.18913,-1.53464 -37.3868,-3.90317 z" id="path4796" inkscape:connector-curvature="0" transform="matrix(0.25,0,0,0.25,348.69337,222.42885)"/>
    <path style="opacity:0.13716814;fill:#deffff;fill-rule:evenodd;stroke:none" d="m 143.80785,458.12968 1.88449,-1.64278 c -1.67422,-1.87739 -2.82277,-4.24716 -3.53627,-6.74574 -0.76543,-2.69463 -1.0199,-5.55115 -0.93585,-8.40744 0.0906,-2.97565 0.56166,-5.94676 1.35169,-8.83459 0,0 0,0 0,0 0.76346,-2.78289 1.81678,-5.48419 3.21602,-7.98845 0,0 0,-10e-6 0,-10e-6 1.238,-2.20542 2.71694,-4.26729 4.57287,-5.88647 0.80494,-0.70344 1.67228,-1.32068 2.6033,-1.78518 0.86257,-0.43026 1.78031,-0.73728 2.71254,-0.86048 0.93134,-0.12624 1.89337,-0.0717 2.81366,0.1525 0,0 1e-5,0 1e-5,1e-5 1.03718,0.24933 2.03628,0.72204 2.96379,1.32373 0,0 0,0 0,0 2.57513,1.61765 4.52272,4.17734 6.19854,6.88333 0,1e-5 0,1e-5 0,1e-5 0.44899,3.15277 0.92961,6.3135 1.53077,9.4628 0.38827,2.00927 0.81983,4.01374 1.3216,6.00375 0,0 0,0 0,0 0.48592,1.92839 1.03689,3.85023 1.7179,5.73442 0.5766,1.60115 1.24931,3.20148 2.16793,4.68603 0.37017,0.59892 0.79214,1.18402 1.29371,1.71564 0.41846,0.44681 0.91183,0.85633 1.49138,1.1596 0.52224,0.27178 1.11318,0.42744 1.72259,0.42542 0,0 1e-5,0 1e-5,0 0.6598,-0.0114 1.28342,-0.19764 1.82932,-0.48537 0.70739,-0.37121 1.31001,-0.87135 1.835,-1.40793 0.73456,-0.79051 1.36251,-1.65737 1.93058,-2.54175 -0.24224,-2.72288 -0.12395,-5.48112 0.50137,-8.12031 0,-10e-6 0,-10e-6 0,-10e-6 0.52136,-2.20671 1.41427,-4.33147 2.6908,-6.20023 2.27588,-3.33635 5.83085,-5.81422 9.78204,-6.73418 3.95558,-0.92497 8.26491,-0.28307 11.83537,1.7071 0,0 0,0 0,0 1.99522,1.11129 3.76651,2.62294 5.2409,4.38123 1.72435,2.059 3.04633,4.44564 4.01581,6.95877 2.33588,3.1339 4.49465,6.39813 6.73714,9.59983 2.24015,3.19791 4.57346,6.34404 7.2263,9.20692 -2.61358,-2.89878 -4.90001,-6.07198 -7.09496,-9.2976 -2.19362,-3.22326 -4.30096,-6.50396 -6.59056,-9.66008 -0.94014,-2.54592 -2.24161,-4.97278 -3.96245,-7.08166 -1e-5,-10e-6 -1e-5,-10e-6 -1e-5,-10e-6 -1.48025,-1.81612 -3.27367,-3.38961 -5.31361,-4.56388 -3.65716,-2.10364 -8.10041,-2.834 -12.24701,-1.92799 -4.14092,0.90874 -7.89091,3.43616 -10.33926,6.9195 -1.36726,1.94774 -2.33639,4.16109 -2.91234,6.46562 0,0 0,0 0,1e-5 -0.66059,2.64744 -0.79557,5.39907 -0.54501,8.0946 -0.52912,0.72972 -1.09436,1.41963 -1.74001,2.00903 -0.48669,0.47488 -1.00168,0.89882 -1.56833,1.17829 -0.428,0.20966 -0.88112,0.34624 -1.31488,0.33835 -0.39583,0.002 -0.80223,-0.11704 -1.17069,-0.31127 -0.42299,-0.22127 -0.80467,-0.5559 -1.15912,-0.93544 -0.42232,-0.45613 -0.78659,-0.98084 -1.12218,-1.53566 -0.83488,-1.38201 -1.44766,-2.91062 -1.99268,-4.47709 -0.63668,-1.83717 -1.14869,-3.72295 -1.60224,-5.6289 0,-10e-6 0,-10e-6 0,-10e-6 -0.46731,-1.96519 -0.86601,-3.94908 -1.2234,-5.94314 0,0 0,0 0,0 -0.584,-3.21373 -1.05247,-6.45746 -1.49506,-9.71544 0,-10e-6 0,-10e-6 0,-10e-6 -1.70462,-2.93067 -3.81466,-5.79298 -6.71812,-7.80641 -1.05034,-0.70918 -2.22223,-1.27666 -3.48603,-1.60673 0,0 -1e-5,0 -1e-5,0 -1.12938,-0.29194 -2.31278,-0.37502 -3.47827,-0.23511 -1.16039,0.14242 -2.2772,0.49361 -3.30731,0.9947 -1.10653,0.53814 -2.1171,1.23123 -3.03027,2.01274 -2.09068,1.79187 -3.74234,4.00579 -5.0787,6.3373 0,0 0,0 0,1e-5 -1.52341,2.64651 -2.67973,5.48758 -3.52024,8.40554 0,0 -1e-5,0 -1e-5,1e-5 -0.87451,3.02825 -1.41465,6.16335 -1.55577,9.32911 -0.13838,3.03847 0.10163,6.13195 0.89894,9.1255 0.74007,2.79222 2.02303,5.49739 3.95428,7.75595 z" id="path4812" inkscape:connector-curvature="0"/>
    <path style="opacity:0.1017699;fill:#deffff;fill-rule:evenodd;stroke:none" d="m 240.33816,456.41742 1.75369,1.78173 c 2.17573,-2.17687 3.72614,-4.89135 4.62639,-7.77725 0.93109,-2.98702 1.22621,-6.11604 1.06806,-9.18093 -0.31779,-6.33045 -2.38934,-12.54596 -5.90589,-17.79159 -1e-5,0 -1e-5,0 -1e-5,0 -1.59553,-2.38918 -3.5436,-4.59435 -5.8995,-6.32556 -1.07535,-0.78887 -2.24312,-1.47059 -3.49218,-1.99056 -1.19789,-0.49851 -2.47026,-0.83742 -3.77499,-0.97301 -1.3227,-0.13575 -2.66189,-0.0552 -3.95507,0.23226 0,0 -1e-5,0 -1e-5,0 -1.41833,0.31735 -2.7637,0.87025 -3.99916,1.58466 -1e-5,0 -1e-5,0 -1e-5,10e-6 -3.24152,1.93169 -5.7651,4.78551 -7.82107,7.80685 -0.52287,3.26576 -1.07573,6.51494 -1.76127,9.72601 -0.42,1.99628 -0.88774,3.97945 -1.4335,5.93818 0,1e-5 0,1e-5 0,1e-5 -0.53303,1.91158 -1.13377,3.79763 -1.87315,5.62164 -0.64277,1.57975 -1.36753,3.1126 -2.32466,4.46945 -0.39608,0.5613 -0.82554,1.08732 -1.31177,1.53776 -0.42299,0.39006 -0.88069,0.72718 -1.3762,0.95092 -10e-6,10e-6 -10e-6,10e-6 -10e-6,10e-6 -0.45482,0.20715 -0.94949,0.32615 -1.43811,0.32677 -0.53355,0.006 -1.08152,-0.13047 -1.60192,-0.35113 -0.6586,-0.27976 -1.27097,-0.70526 -1.84883,-1.19083 -0.73969,-0.57285 -1.40169,-1.25677 -2.02289,-1.98817 0.299,-2.69983 0.14052,-5.47128 -0.62068,-8.10125 -0.6846,-2.35914 -1.83856,-4.5788 -3.39119,-6.47823 -3.0021,-3.66252 -7.39012,-6.03476 -12.00337,-6.8966 -4.79327,-0.89782 -9.86012,-0.22061 -14.21621,1.92989 -2.31282,1.14231 -4.41608,2.69618 -6.18958,4.56064 -1.95776,2.05587 -3.50533,4.48329 -4.62879,7.08455 -1e-5,0 -1e-5,0 -1e-5,0 -2.66143,3.14355 -5.13353,6.43862 -7.69539,9.66377 -2.58433,3.2539 -5.27071,6.43801 -8.28318,9.30243 3.04899,-2.82551 5.7802,-5.97899 8.40789,-9.20208 2.60914,-3.20086 5.13159,-6.47692 7.8377,-9.59615 1.14877,-2.56375 2.71251,-4.94806 4.66968,-6.95589 1.76223,-1.80563 3.84072,-3.29921 6.11145,-4.38447 4.2761,-2.04468 9.22234,-2.63434 13.8512,-1.70521 4.45035,0.8956 8.64997,3.23618 11.4475,6.75709 1.45172,1.82179 2.51932,3.94545 3.13914,6.18763 0.72618,2.61675 0.87468,5.39041 0.59884,8.11367 0.6736,0.90295 1.4122,1.77787 2.2551,2.56262 0.62447,0.54582 1.32535,1.03933 2.11765,1.39538 0.63448,0.28542 1.33524,0.46299 2.06259,0.47259 0.67074,0.004 1.33106,-0.14226 1.93392,-0.40992 0,0 0,0 1e-5,0 0.6444,-0.28798 1.2151,-0.68951 1.71289,-1.14411 0.57217,-0.52046 1.0662,-1.10536 1.50389,-1.71355 1.05313,-1.46286 1.84617,-3.07235 2.52442,-4.69367 0.78784,-1.87671 1.43014,-3.80367 1.9964,-5.74167 0,0 0,0 0,-10e-6 0.5811,-1.98742 1.08203,-3.99449 1.53263,-6.00871 0,0 0,0 0,0 0.69351,-3.14173 1.24799,-6.30097 1.76525,-9.45222 0,0 0,-1e-5 0,-1e-5 1.99321,-2.77179 4.3305,-5.32064 7.23296,-6.88289 0,0 0,0 0,0 1.11142,-0.6202 2.29733,-1.09299 3.51794,-1.34581 1.1098,-0.23169 2.25675,-0.28577 3.37802,-0.15535 1.10863,0.12725 2.20242,0.43642 3.24099,0.88217 1.08573,0.46581 2.11327,1.08659 3.0736,1.80736 2.11409,1.58366 3.87501,3.64561 5.34917,5.89822 3.24326,4.97616 5.11301,10.8536 5.33364,16.76611 0,0 0,10e-6 0,10e-6 0.10187,2.84765 -0.1967,5.70266 -1.07036,8.35201 -0.83741,2.54097 -2.21826,4.90409 -4.10365,6.72443 z" id="path4826" inkscape:connector-curvature="0"/>
    <path transform="matrix(0.25,0,0,0.25,331.91323,186.28701)" style="opacity:0.96460176;fill:url(#linearGradient5223);fill-opacity:1;stroke:#ffffff;stroke-width:1.79999995;stroke-linecap:round;stroke-miterlimit:4;stroke-opacity:1;stroke-dashoffset:0;filter:url(#filter4832)" d="m -469.84397,46.297871 c 0,54.178739 -46.23216,98.099289 -103.26241,98.099289 -57.03026,0 -103.26242,-43.92055 -103.26242,-98.099289 0,-54.1787416 46.23216,-98.099289 103.26242,-98.099289 57.03025,0 103.26241,43.9205474 103.26241,98.099289 z" id="path4830" inkscape:connector-curvature="0"/>
    <path style="opacity:0.93805309;fill:#0083d7;fill-rule:evenodd;stroke:none;filter:url(#filter4864)" d="m -851.75146,598.69559 9.99936,0.11236 0.16344,-459.57391 z" id="path4844" inkscape:connector-curvature="0" transform="matrix(0.25,0,0,0.25,348.69337,222.42885)"/>
    <path style="opacity:0.90265491;fill:#0083d7;fill-rule:evenodd;stroke:none;filter:url(#filter4860)" d="m -423.21277,624.56738 10,0 -5,-500.8227 z" id="path4848" inkscape:connector-curvature="0" transform="matrix(0.25,0,0,0.25,348.69337,222.42885)"/>
    <path style="opacity:0.93805309;fill:#91b3ca;fill-opacity:1;fill-rule:evenodd;stroke:none;filter:url(#filter4864)" d="m -743.32593,655.48992 9.99936,0.11236 0.16344,-459.57391 z" id="path4868" inkscape:connector-curvature="0" transform="matrix(0.25,0,0,0.25,348.69337,222.42885)"/>
    <path style="opacity:0.93805309;fill:#91b3ca;fill-opacity:1;fill-rule:evenodd;stroke:none;filter:url(#filter4864)" d="m -541.96423,660.65304 9.99936,0.11236 0.16344,-459.57391 z" id="path4872" inkscape:connector-curvature="0" transform="matrix(0.25,0,0,0.25,348.69337,222.42885)"/>
    <path inkscape:connector-curvature="0" id="path4898" d="m 209.39389,99.43418 -40.16406,1.14062 0.46093,3.1875 -3.19531,1.14844 2.73438,2.50781 0.46093,0.91407 -2.96875,0.90625 2.50782,2.96874 0.46093,7.07813 -2.74218,1.14062 -0.45313,3.19532 -1.42969,1.625 c -0.0583,-0.0116 -0.11339,-0.0196 -0.17187,-0.0312 l -1.82031,11.86718 c 0.74183,0.0392 1.47028,0.0669 2.20312,0.10156 l 0,10.84375 2.02344,0 c -23.27844,18.98664 -37.08082,44.72662 -37.53907,77.13281 0,11.49075 2.29158,21.61716 6.38281,29.99219 l 0,122.48438 -2.1875,-0.0547 c 0,0 -1.31723,12.76649 -1.82813,19.16406 -0.75235,9.42105 -2.76166,18.89284 -1.82031,28.29688 1.16145,11.60277 9.125,33.77344 9.125,33.77344 l 17.34375,2.73437 10.95314,-7.30469 2.73437,8.21875 8.21875,3.64845 16.42188,0.91405 9.13281,-13.6875 18.25,10.95313 17.34375,-3.65625 c 0,0 9.29916,-24.59048 11.86719,-37.42188 2.03787,-10.18241 4.51373,-20.80049 2.73437,-31.03125 -0.74641,-4.29162 -5.47656,-11.86718 -5.47656,-11.86718 l -38.44531,-0.91407 37.90625,0 0,-123.34375 c 4.09123,-8.37503 6.38281,-18.50144 6.38281,-29.99219 -1.57929,-40.08185 -16.43295,-54.77231 -41,-79.32812 l 0,-10.32031 c 1.04674,-0.0805 2.08975,-0.16377 3.125,-0.25 l -4.32031,-11.21094 0.66406,-0.88281 0.46094,-2.74219 -3.19532,-2.28125 0,-4.10156 2.05469,-1.82812 -2.05469,-1.82813 -0.22656,-0.91406 2.96094,-2.73437 -3.19531,-2.28125 0,-1.14063 1.14062,-0.6875 -1.36719,-0.91406 -0.45312,-3.1875 z" style="opacity:0;fill:#0099ff;fill-opacity:1;stroke:#fdddcd;stroke-width:0;stroke-linecap:round;stroke-miterlimit:4;stroke-opacity:1;stroke-dasharray:none;stroke-dashoffset:0"/>
    <path style="fill:url(#radialGradient4700);fill-opacity:1;stroke:#89c5ff;stroke-width:0.44999999;stroke-linecap:round;stroke-miterlimit:4;stroke-opacity:1;stroke-dasharray:none;stroke-dashoffset:0" d="m 171.41087,99.43418 44.16406,1.14062 -0.46094,3.1875 3.19531,1.14844 -2.73437,2.50781 -0.46094,0.91407 2.96875,0.90625 -2.50781,2.96874 -0.46094,7.07813 2.74219,1.14062 0.45312,3.19532 1.42969,1.625 c 0.0583,-0.0116 0.1134,-0.0196 0.17188,-0.0312 l 1.82031,11.86718 c -0.74184,0.0392 -1.47029,0.0669 -2.20313,0.10156 l 0,10.84375 -2.02343,0 c 23.27843,18.98664 37.0808,44.72662 37.53906,77.13281 0,11.49075 -2.29158,21.61716 -6.38281,29.99219 l 0,122.48438 2.1875,-0.0547 c 0,0 1.31722,12.76649 1.82812,19.16406 0.75235,9.42105 2.76167,18.89284 1.82031,28.29688 -1.16144,11.60277 -9.125,33.77344 -9.125,33.77344 l -17.34375,2.73437 -10.95312,-7.30469 -2.73438,8.21875 -8.21875,3.64845 -27.3935,-0.054 -11.06898,-13.3648 -11.34221,11.59852 -17.34375,-3.65625 c 0,0 -5.55802,-22.65431 -8.12605,-35.48571 -2.03787,-10.18241 -2.25488,-22.73666 -0.47552,-32.96742 0.74642,-4.29162 5.47657,-11.86718 5.47657,-11.86718 l 38.44532,-0.91407 -37.90626,0 0,-123.34375 c -4.09123,-8.37503 -6.38281,-18.50144 -6.38281,-29.99219 1.57929,-40.08185 12.43295,-54.77231 37.00001,-79.32812 l 0,-10.32031 c -1.04675,-0.0805 -2.08975,-0.16377 -3.125,-0.25 l 4.32031,-11.21094 -0.66406,-0.88281 -0.46094,-2.74219 3.19531,-2.28125 0,-4.10156 -2.05469,-1.82812 2.05469,-1.82813 0.22656,-0.91406 -2.96093,-2.73437 3.19531,-2.28125 0,-1.14063 -1.14063,-0.6875 1.36719,-0.91406 0.45313,-3.1875 z" id="path4900" inkscape:connector-curvature="0" sodipodi:nodetypes="cccccccccccccccccccccsscccccccccssccccccccccccccccccccccc"/>
    <path inkscape:connector-curvature="0" id="path4904" d="m 169.41087,99.43418 46.16406,1.14062 -0.46094,3.1875 3.19531,1.14844 -2.73437,2.50781 -0.46094,0.91407 2.96875,0.90625 -2.50781,2.96874 -0.46094,7.07813 2.74219,1.14062 0.45312,3.19532 1.42969,1.625 c 0.0583,-0.0116 0.1134,-0.0196 0.17188,-0.0312 l 1.82031,11.86718 c -0.74184,0.0392 -1.47029,0.0669 -2.20313,0.10156 l 0,10.84375 -2.02343,0 c 23.27843,18.98664 37.0808,44.72662 37.53906,77.13281 0,11.49075 -2.29158,21.61716 -6.38281,29.99219 l 0,122.48438 2.1875,-0.0547 c 0,0 1.31722,12.76649 1.82812,19.16406 0.75235,9.42105 2.76167,18.89284 1.82031,28.29688 -1.16144,11.60277 -9.125,33.77344 -9.125,33.77344 l -17.34375,2.73437 -10.95312,-7.30469 -2.73438,8.21875 -8.21875,3.64845 -16.42187,0.91405 -9.13281,-13.6875 -18.25,10.95313 -17.34376,-3.65625 c 0,0 -9.29916,-24.59048 -11.86719,-37.42188 -2.03787,-10.18241 -4.51374,-20.80049 -2.73438,-31.03125 0.74642,-4.29162 5.47657,-11.86718 5.47657,-11.86718 l 38.44532,-0.91407 -37.90626,0 0,-123.34375 c -4.09123,-8.37503 -6.38281,-18.50144 -6.38281,-29.99219 1.57929,-40.08185 10.43295,-54.77231 35.00001,-79.32812 l 0,-10.32031 c -1.04675,-0.0805 -2.08975,-0.16377 -3.125,-0.25 l 4.32031,-11.21094 -0.66406,-0.88281 -0.46094,-2.74219 3.19531,-2.28125 0,-4.10156 -2.05469,-1.82812 2.05469,-1.82813 0.22656,-0.91406 -2.96093,-2.73437 3.19531,-2.28125 0,-1.14063 -1.14063,-0.6875 1.36719,-0.91406 0.45313,-3.1875 z" style="opacity:0.76106196;fill:url(#radialGradient5153);fill-opacity:1;stroke:#fdddcd;stroke-width:0;stroke-linecap:round;stroke-miterlimit:4;stroke-opacity:1;stroke-dasharray:none;stroke-dashoffset:0" sodipodi:nodetypes="cccccccccccccccccccccsscccccccccssccccccccccccccccccccccc"/>
    <path transform="matrix(0.25,0,0,0.25,348.69337,222.42885)" inkscape:connector-curvature="0" id="path4906" d="m -825.88833,81.749718 9.90432,1.379992 c 3.72601,-29.884189 13.25967,-59.082016 27.03867,-86.142806 13.31224,-26.158071 30.37032,-50.443114 48.40103,-73.956696 10e-6,-2e-6 10e-6,-5e-6 10e-6,-7e-6 18.39034,-23.971721 37.8373,-47.247731 56.0241,-71.517921 1e-5,0 1e-5,0 1e-5,0 18.64566,-24.87855 35.95502,-50.90718 49.45636,-78.8598 -14.26129,27.57264 -32.21964,53.01586 -51.47511,77.30359 0,10e-6 0,10e-6 -10e-6,2e-5 -18.7873,23.69354 -38.83017,46.38701 -57.95817,69.954515 0,5e-6 0,9e-6 -10e-6,1.4e-5 -18.7676,23.113302 -36.67896,47.202044 -51.06053,73.5914332 -14.89942,27.3549118 -25.5683,57.2100378 -30.33067,88.2476658 z" style="fill:#ffffff;fill-opacity:1;fill-rule:evenodd;stroke:none;filter:url(#filter4762)"/>
    <path transform="matrix(0.25,0,0,0.25,348.69337,222.42885)" inkscape:connector-curvature="0" id="path4908" d="m -712.21529,70.971185 9.73554,2.284576 c 3.73089,-16.933737 8.71556,-33.597529 15.12141,-49.707513 5.67858,-14.2870645 12.48808,-28.1483918 20.27105,-41.462163 0,-3e-6 0,-6e-6 0,-8e-6 14.27683,-24.447147 31.98254,-46.934819 50.17249,-69.015859 0,-5e-6 10e-6,-9e-6 10e-6,-1.4e-5 18.21577,-22.096154 36.79705,-44.112954 52.79414,-68.006904 18.20901,-27.20367 32.75091,-56.82008 42.64547,-87.90018 -10.73241,30.80082 -26.02615,59.88857 -44.82723,86.39685 -16.51875,23.2956 -35.58254,44.66347 -54.41009,66.2929 0,5e-6 -10e-6,9e-6 -10e-6,1.4e-5 -18.83985,21.628586 -37.31934,43.853309 -52.62946,68.460724 -8.32771,13.397419 -15.69572,27.4200528 -21.93722,41.959254 -7.03434,16.392351 -12.63177,33.390627 -16.9361,50.698323 z" style="fill:#ffffff;fill-opacity:1;fill-rule:evenodd;stroke:none;filter:url(#filter4758)"/>
    <path transform="matrix(0.25,0,0,0.25,348.69337,222.42885)" inkscape:connector-curvature="0" id="path4910" d="m -614.17313,91.902631 9.8498,1.726648 c 2.77045,-17.170746 7.22329,-34.083536 13.57548,-50.269956 5.57343,-14.216151 12.63057,-27.886535 20.82301,-40.8705081 0,-2.6e-6 0,-5.2e-6 0,-7.7e-6 15.04009,-23.8694662 34.06518,-45.2814802 52.58876,-67.1350972 9.02691,-10.641359 17.92566,-21.460856 26.09048,-32.852343 0,-2e-6 1e-5,-5e-6 1e-5,-7e-6 8.32919,-11.62012 15.85658,-23.85296 22.01482,-36.76298 6.68386,-14.01647 11.70639,-28.79139 14.97285,-43.92152 3.85279,-17.85174 5.31171,-36.13178 5.06643,-54.3275 -0.24528,18.19572 -2.19683,36.38381 -6.50068,53.99764 -3.64616,14.92631 -9.01411,29.40717 -15.97688,43.04831 -6.41291,12.56789 -14.16303,24.4216 -22.69007,35.671206 -10e-6,5e-6 -10e-6,1e-5 -2e-5,1.5e-5 -8.36256,11.032055 -17.46726,21.506836 -26.74213,31.865823 -19.06656,21.279144 -38.7958,42.339155 -54.94995,66.4319015 -1e-5,5.2e-6 -1e-5,1.04e-5 -1e-5,1.56e-5 -8.77722,13.1074609 -16.43949,27.0173399 -22.62819,41.6175849 -7.04013,16.623837 -12.14523,34.045564 -15.49371,51.780775 z" style="fill:#ffffff;fill-opacity:1;fill-rule:evenodd;stroke:none;filter:url(#filter4754)"/>
    <path transform="matrix(0.25,0,0,0.25,348.69337,222.42885)" inkscape:connector-curvature="0" id="path4912" d="m -841.52769,123.90817 -0.12194,9.99926 423.43686,0.16349 z" style="fill:#ffffff;fill-opacity:1;fill-rule:evenodd;stroke:none;filter:url(#filter4750)"/>
    <path transform="matrix(0.25,0,0,0.25,348.69337,222.42885)" inkscape:connector-curvature="0" id="path4914" d="m -841.58866,629.89362 0,10 413.04965,-5 z" style="fill:#ffffff;fill-opacity:1;fill-rule:evenodd;stroke:none;filter:url(#filter4746)"/>
    <path inkscape:connector-curvature="0" id="path4916" d="m 153.8401,238.90929 2.47608,0.345 c 0.82455,-6.70343 2.95341,-13.25881 6.0368,-19.33836 2.97913,-5.87741 6.80303,-11.33915 10.84704,-16.63004 0,0 0,0 0,0 4.12485,-5.39393 8.48901,-10.63371 12.56983,-16.0969 0,0 0,0 0,0 4.18386,-5.60014 8.06682,-11.45874 11.09234,-17.74727 -3.21551,6.19353 -7.26072,11.90579 -11.59702,17.35821 0,1e-5 -1e-5,1e-5 -1e-5,1e-5 -4.23094,5.31903 -8.74408,10.41318 -13.05334,15.70605 0,0 0,0 -10e-6,0 -4.22823,5.19082 -8.26545,10.60349 -11.5119,16.53873 -3.36351,6.15308 -5.77617,12.87279 -6.85981,19.86457 z" style="opacity:0.71238942;fill:#ffffff;fill-opacity:1;fill-rule:evenodd;stroke:none"/>
    <path inkscape:connector-curvature="0" id="path4918" d="m 179.3959,236.47488 2.43388,0.57114 c 0.83148,-3.80198 1.94431,-7.54378 3.37642,-11.16174 1.26945,-3.20855 2.79319,-6.32254 4.53593,-9.31442 0,0 0,0 0,0 3.19641,-5.4937 7.1669,-10.55223 11.2478,-15.52174 0,0 1e-5,0 1e-5,0 4.08719,-4.97309 8.25817,-9.93064 11.84774,-15.30953 4.08592,-6.12414 7.34546,-12.78856 9.55919,-19.77887 -2.4232,6.92049 -5.8707,13.45275 -10.10463,19.40304 -3.71998,5.2293 -8.0116,10.02462 -12.25173,14.88102 0,1e-5 0,1e-5 0,1e-5 -4.24339,4.85639 -8.40732,9.84919 -11.86204,15.38295 -1e-5,0 -1e-5,0 -1e-5,0 -1.87893,3.01279 -3.54229,6.16711 -4.95247,9.43869 -1.58923,3.68855 -2.85525,7.51397 -3.83009,11.40945 z" style="opacity:0.71238942;fill:#ffffff;fill-opacity:1;fill-rule:evenodd;stroke:none"/>
    <path inkscape:connector-curvature="0" id="path4920" d="m 201.4343,241.18729 2.46245,0.43166 c 0.61551,-3.85286 1.60829,-7.64844 3.02759,-11.28163 1.24515,-3.19095 2.82397,-6.26103 4.65826,-9.17826 0,0 0,0 0,0 3.36697,-5.36304 7.63493,-10.18089 11.79219,-15.10081 2.02612,-2.39573 4.02396,-4.8323 5.85692,-7.39763 0,0 0,0 0,0 1.86991,-2.61687 3.55926,-5.37158 4.94042,-8.27806 1.49901,-3.15563 2.62372,-6.48073 3.35324,-9.88455 0.86042,-4.01606 1.18218,-8.12656 1.12086,-12.21696 -0.0613,4.0904 -0.50624,8.17791 -1.47942,12.1345 -0.82444,3.35286 -2.03551,6.60445 -3.60425,9.66624 -1.44483,2.82095 -3.18986,5.48088 -5.10923,8.00512 0,0 -1e-5,0 -1e-5,0 -1.88239,2.47548 -3.93172,4.82586 -6.01983,7.151 -4.293,4.7763 -8.737,9.50615 -12.38248,14.92501 -1.98049,2.94811 -3.71059,6.07806 -5.10956,9.36503 -1.59129,3.74255 -2.74713,7.66536 -3.50715,11.65934 z" style="opacity:0.71238942;fill:#ffffff;fill-opacity:1;fill-rule:evenodd;stroke:none"/>
    <path inkscape:connector-curvature="0" id="path4922" d="m 138.31144,253.4059 -0.0305,2.49981 105.85922,0.0408 z" style="opacity:0.71238942;fill:#ffffff;fill-opacity:1;fill-rule:evenodd;stroke:none"/>
    <path inkscape:connector-curvature="0" id="path4924" d="m 138.29619,379.90226 0,2.5 103.26243,-1.25 z" style="opacity:0.71238942;fill:#ffffff;fill-opacity:1;fill-rule:evenodd;stroke:none"/>
    <path transform="matrix(0.25,0,0,0.25,348.69337,222.42885)" inkscape:connector-curvature="0" id="path4926" d="m -717.57912,-351.09839 -0.18928,9.9982 c 31.22136,-0.27009 62.46263,-0.89447 93.65666,-2.3927 29.14057,-1.39757 58.33947,-3.35716 87.1472,-7.76953 -29.00746,2.81453 -58.13338,3.14811 -87.2458,2.93971 -31.1389,-0.22576 -62.25539,-1.32549 -93.36878,-2.77568 z" style="opacity:0.78318583;fill:#deffff;fill-rule:evenodd;stroke:none;filter:url(#filter4808)"/>
    <path transform="matrix(0.25,0,0,0.25,348.69337,222.42885)" inkscape:connector-curvature="0" id="path4928" d="m -706.80889,-402.7014 -1.07726,9.9418 c 27.72852,2.11235 55.43421,-0.23061 82.38033,-5.41792 24.52036,-4.71767 48.50011,-11.17248 73.05192,-15.04234 -24.74895,2.29274 -49.25992,7.22226 -73.80328,10.33372 -26.88824,3.40306 -54.08204,3.94511 -80.55171,0.18474 z" style="opacity:0.78318583;fill:#deffff;fill-rule:evenodd;stroke:none;filter:url(#filter4804)"/>
    <path transform="matrix(0.25,0,0,0.25,348.69337,222.42885)" inkscape:connector-curvature="0" id="path4930" d="m -680.75521,-443.97477 -1.55342,9.8786 c 13.02128,1.59719 26.04725,1.83885 38.93989,1.39661 13.51123,-0.45927 26.94137,-1.68708 40.26622,-3.43045 0,0 0,0 0,0 12.42986,-1.62563 24.78418,-3.70316 37.03308,-6.21597 9.78404,-2.00686 19.52103,-4.26733 29.1049,-7.01573 -9.74972,2.085 -19.58447,3.66572 -29.44813,4.99318 -12.34392,1.66073 -24.73218,2.87763 -37.13215,3.64048 -1e-5,0 -1e-5,0 -1e-5,0 -13.29374,0.81719 -26.59335,1.11692 -39.82357,0.65645 -1e-5,0 -1e-5,0 -1e-5,0 -12.63621,-0.44339 -25.18913,-1.53464 -37.3868,-3.90317 z" style="opacity:0.78318583;fill:#deffff;fill-rule:evenodd;stroke:none;filter:url(#filter4800)"/>
    <path inkscape:connector-curvature="0" id="path4932" d="m 143.80785,458.12968 1.88449,-1.64278 c -1.67422,-1.87739 -2.82277,-4.24716 -3.53627,-6.74574 -0.76543,-2.69463 -1.0199,-5.55115 -0.93585,-8.40744 0.0906,-2.97565 0.56166,-5.94676 1.35169,-8.83459 0,0 0,0 0,0 0.76346,-2.78289 1.81678,-5.48419 3.21602,-7.98845 0,0 0,-10e-6 0,-10e-6 1.238,-2.20542 2.71694,-4.26729 4.57287,-5.88647 0.80494,-0.70344 1.67228,-1.32068 2.6033,-1.78518 0.86257,-0.43026 1.78031,-0.73728 2.71254,-0.86048 0.93134,-0.12624 1.89337,-0.0717 2.81366,0.1525 0,0 1e-5,0 1e-5,1e-5 1.03718,0.24933 2.03628,0.72204 2.96379,1.32373 0,0 0,0 0,0 2.57513,1.61765 4.52272,4.17734 6.19854,6.88333 0,1e-5 0,1e-5 0,1e-5 0.44899,3.15277 0.92961,6.3135 1.53077,9.4628 0.38827,2.00927 0.81983,4.01374 1.3216,6.00375 0,0 0,0 0,0 0.48592,1.92839 1.03689,3.85023 1.7179,5.73442 0.5766,1.60115 1.24931,3.20148 2.16793,4.68603 0.37017,0.59892 0.79214,1.18402 1.29371,1.71564 0.41846,0.44681 0.91183,0.85633 1.49138,1.1596 0.52224,0.27178 1.11318,0.42744 1.72259,0.42542 0,0 1e-5,0 1e-5,0 0.6598,-0.0114 1.28342,-0.19764 1.82932,-0.48537 0.70739,-0.37121 1.31001,-0.87135 1.835,-1.40793 0.73456,-0.79051 1.36251,-1.65737 1.93058,-2.54175 -0.24224,-2.72288 -0.12395,-5.48112 0.50137,-8.12031 0,-10e-6 0,-10e-6 0,-10e-6 0.52136,-2.20671 1.41427,-4.33147 2.6908,-6.20023 2.27588,-3.33635 5.83085,-5.81422 9.78204,-6.73418 3.95558,-0.92497 8.26491,-0.28307 11.83537,1.7071 0,0 0,0 0,0 1.99522,1.11129 3.76651,2.62294 5.2409,4.38123 1.72435,2.059 3.04633,4.44564 4.01581,6.95877 2.33588,3.1339 4.49465,6.39813 6.73714,9.59983 2.24015,3.19791 4.57346,6.34404 7.2263,9.20692 -2.61358,-2.89878 -4.90001,-6.07198 -7.09496,-9.2976 -2.19362,-3.22326 -4.30096,-6.50396 -6.59056,-9.66008 -0.94014,-2.54592 -2.24161,-4.97278 -3.96245,-7.08166 -1e-5,-10e-6 -1e-5,-10e-6 -1e-5,-10e-6 -1.48025,-1.81612 -3.27367,-3.38961 -5.31361,-4.56388 -3.65716,-2.10364 -8.10041,-2.834 -12.24701,-1.92799 -4.14092,0.90874 -7.89091,3.43616 -10.33926,6.9195 -1.36726,1.94774 -2.33639,4.16109 -2.91234,6.46562 0,0 0,0 0,1e-5 -0.66059,2.64744 -0.79557,5.39907 -0.54501,8.0946 -0.52912,0.72972 -1.09436,1.41963 -1.74001,2.00903 -0.48669,0.47488 -1.00168,0.89882 -1.56833,1.17829 -0.428,0.20966 -0.88112,0.34624 -1.31488,0.33835 -0.39583,0.002 -0.80223,-0.11704 -1.17069,-0.31127 -0.42299,-0.22127 -0.80467,-0.5559 -1.15912,-0.93544 -0.42232,-0.45613 -0.78659,-0.98084 -1.12218,-1.53566 -0.83488,-1.38201 -1.44766,-2.91062 -1.99268,-4.47709 -0.63668,-1.83717 -1.14869,-3.72295 -1.60224,-5.6289 0,-10e-6 0,-10e-6 0,-10e-6 -0.46731,-1.96519 -0.86601,-3.94908 -1.2234,-5.94314 0,0 0,0 0,0 -0.584,-3.21373 -1.05247,-6.45746 -1.49506,-9.71544 0,-10e-6 0,-10e-6 0,-10e-6 -1.70462,-2.93067 -3.81466,-5.79298 -6.71812,-7.80641 -1.05034,-0.70918 -2.22223,-1.27666 -3.48603,-1.60673 0,0 -1e-5,0 -1e-5,0 -1.12938,-0.29194 -2.31278,-0.37502 -3.47827,-0.23511 -1.16039,0.14242 -2.2772,0.49361 -3.30731,0.9947 -1.10653,0.53814 -2.1171,1.23123 -3.03027,2.01274 -2.09068,1.79187 -3.74234,4.00579 -5.0787,6.3373 0,0 0,0 0,1e-5 -1.52341,2.64651 -2.67973,5.48758 -3.52024,8.40554 0,0 -1e-5,0 -1e-5,1e-5 -0.87451,3.02825 -1.41465,6.16335 -1.55577,9.32911 -0.13838,3.03847 0.10163,6.13195 0.89894,9.1255 0.74007,2.79222 2.02303,5.49739 3.95428,7.75595 z" style="opacity:0.13716814;fill:#deffff;fill-rule:evenodd;stroke:none"/>
    <path inkscape:connector-curvature="0" id="path4934" d="m 236.68728,458.24286 1.75369,1.78173 c 2.17573,-2.17687 3.72614,-4.89135 4.62639,-7.77725 0.93109,-2.98702 1.22621,-6.11604 1.06806,-9.18093 -0.31779,-6.33045 -2.38934,-12.54596 -5.90589,-17.79159 -1e-5,0 -1e-5,0 -1e-5,0 -1.59553,-2.38918 -3.5436,-4.59435 -5.8995,-6.32556 -1.07535,-0.78887 -2.24312,-1.47059 -3.49218,-1.99056 -1.19789,-0.49851 -2.47026,-0.83742 -3.77499,-0.97301 -1.3227,-0.13575 -2.66189,-0.0552 -3.95507,0.23226 0,0 -1e-5,0 -1e-5,0 -1.41833,0.31735 -2.7637,0.87025 -3.99916,1.58466 -1e-5,0 -1e-5,0 -1e-5,10e-6 -3.24152,1.93169 -5.7651,4.78551 -7.82107,7.80685 -0.52287,3.26576 -1.07573,6.51494 -1.76127,9.72601 -0.42,1.99628 -0.88774,3.97945 -1.4335,5.93818 0,10e-6 0,10e-6 0,10e-6 -0.53303,1.91158 -1.13377,3.79763 -1.87315,5.62164 -0.64277,1.57975 -1.36753,3.1126 -2.32466,4.46945 -0.39608,0.5613 -0.82554,1.08732 -1.31177,1.53776 -0.42299,0.39006 -0.88069,0.72718 -1.3762,0.95092 -10e-6,1e-5 -10e-6,1e-5 -10e-6,1e-5 -0.45482,0.20715 -0.94949,0.32615 -1.43811,0.32677 -0.53355,0.006 -1.08152,-0.13047 -1.60192,-0.35113 -0.6586,-0.27976 -1.27097,-0.70526 -1.84883,-1.19083 -0.73969,-0.57285 -1.40169,-1.25677 -2.02289,-1.98817 0.299,-2.69983 0.14052,-5.47128 -0.62068,-8.10125 -0.6846,-2.35914 -1.83856,-4.5788 -3.39119,-6.47823 -3.0021,-3.66252 -7.39012,-6.03476 -12.00337,-6.8966 -4.79327,-0.89782 -9.86012,-0.22061 -14.21621,1.92989 -2.31282,1.14231 -4.41607,2.69618 -6.18957,4.56064 -1.95776,2.05587 -3.50533,4.48329 -4.62879,7.08455 -1e-5,0 -1e-5,0 -1e-5,0 -2.66143,3.14355 -5.13353,6.43862 -7.69539,9.66377 -2.58433,3.2539 -5.27071,6.43801 -8.28318,9.30243 3.04899,-2.82551 5.7802,-5.97899 8.40789,-9.20208 2.60914,-3.20086 5.13159,-6.47692 7.8377,-9.59615 1.14877,-2.56375 2.71251,-4.94806 4.66968,-6.95589 1.76223,-1.80563 3.84071,-3.29921 6.11144,-4.38447 4.2761,-2.04468 9.22234,-2.63434 13.8512,-1.70521 4.45035,0.8956 8.64997,3.23618 11.4475,6.75709 1.45172,1.82179 2.51932,3.94545 3.13914,6.18763 0.72618,2.61675 0.87468,5.39041 0.59884,8.11367 0.6736,0.90295 1.4122,1.77787 2.2551,2.56262 0.62447,0.54582 1.32535,1.03933 2.11765,1.39538 0.63448,0.28542 1.33524,0.46299 2.06259,0.47259 0.67074,0.004 1.33106,-0.14226 1.93392,-0.40992 0,0 0,0 1e-5,0 0.6444,-0.28798 1.2151,-0.68951 1.71289,-1.14411 0.57217,-0.52046 1.0662,-1.10536 1.50389,-1.71355 1.05313,-1.46286 1.84617,-3.07235 2.52442,-4.69367 0.78784,-1.87671 1.43014,-3.80367 1.9964,-5.74167 0,0 0,0 0,-1e-5 0.5811,-1.98742 1.08203,-3.99449 1.53263,-6.00871 0,0 0,0 0,0 0.69351,-3.14173 1.24799,-6.30097 1.76525,-9.45222 0,0 0,-1e-5 0,-1e-5 1.99321,-2.77179 4.3305,-5.32064 7.23296,-6.88289 0,0 0,0 0,0 1.11142,-0.6202 2.29733,-1.09299 3.51794,-1.34581 1.1098,-0.23169 2.25675,-0.28577 3.37802,-0.15535 1.10863,0.12725 2.20242,0.43642 3.24099,0.88217 1.08573,0.46581 2.11327,1.08659 3.0736,1.80736 2.11409,1.58366 3.87501,3.64561 5.34917,5.89822 3.24326,4.97616 5.11301,10.8536 5.33364,16.76611 0,0 0,1e-5 0,1e-5 0.10187,2.84765 -0.1967,5.70266 -1.07036,8.35201 -0.83741,2.54097 -2.21826,4.90409 -4.10365,6.72443 z" style="opacity:0.1017699;fill:#deffff;fill-rule:evenodd;stroke:none"/>
    <path inkscape:connector-curvature="0" id="path4936" d="m -469.84397,46.297871 c 0,54.178739 -46.23216,98.099289 -103.26241,98.099289 -57.03026,0 -103.26242,-43.92055 -103.26242,-98.099289 0,-54.1787416 46.23216,-98.099289 103.26242,-98.099289 57.03025,0 103.26241,43.9205474 103.26241,98.099289 z" style="opacity:0.96460176;fill:url(#linearGradient4896);fill-opacity:1;stroke:#ffffff;stroke-width:1.79999995;stroke-linecap:round;stroke-miterlimit:4;stroke-opacity:1;stroke-dashoffset:0;filter:url(#filter4832)" transform="matrix(0.25,0,0,0.25,331.91323,186.28701)"/>
    <path transform="matrix(-0.16621844,0,0,0.25,-1.5913522,222.42885)" inkscape:connector-curvature="0" id="path4938" d="m -851.75146,598.69559 9.99936,0.11236 0.16344,-459.57391 z" style="opacity:0.41592922;fill:#0083d7;fill-rule:evenodd;stroke:none;filter:url(#filter5175)"/>
    <path inkscape:connector-curvature="0" id="path4940" d="m -423.21277,624.56738 10,0 -5,-500.8227 z" style="opacity:0.3982301;fill:#0083d7;fill-rule:evenodd;stroke:none;filter:url(#filter5171)" transform="matrix(0.25,0,0,0.25,348.69337,223.34157)"/>
    <path transform="matrix(0.25,0,0,0.25,348.69337,222.42885)" inkscape:connector-curvature="0" id="path4942" d="m -743.32593,655.48992 9.99936,0.11236 0.16344,-459.57391 z" style="opacity:0.93805309;fill:#91b3ca;fill-opacity:1;fill-rule:evenodd;stroke:none;filter:url(#filter4864)"/>
    <path transform="matrix(0.25,0,0,0.25,348.69337,222.42885)" inkscape:connector-curvature="0" id="path4944" d="m -541.96423,660.65304 9.99936,0.11236 0.16344,-459.57391 z" style="opacity:0.93805309;fill:#91b3ca;fill-opacity:1;fill-rule:evenodd;stroke:none;filter:url(#filter4864)"/>
    <path sodipodi:nodetypes="cccccccccccccccccccccsscccccccccssccccccccccccccccccccccc" style="opacity:0.48672563;fill:url(#radialGradient5213);fill-opacity:1;stroke:#fdddcd;stroke-width:0;stroke-linecap:round;stroke-miterlimit:4;stroke-opacity:1;stroke-dasharray:none;stroke-dashoffset:0;filter:url(#filter5215)" d="m 169.41087,99.43418 46.16406,1.14062 -0.46094,3.1875 3.19531,1.14844 -2.73437,2.50781 -0.46094,0.91407 2.96875,0.90625 -2.50781,2.96874 -0.46094,7.07813 2.74219,1.14062 0.45312,3.19532 1.42969,1.625 c 0.0583,-0.0116 0.1134,-0.0196 0.17188,-0.0312 l 1.82031,11.86718 c -0.74184,0.0392 -1.47029,0.0669 -2.20313,0.10156 l 0,10.84375 -2.02343,0 c 23.27843,18.98664 37.0808,44.72662 37.53906,77.13281 0,11.49075 -2.29158,21.61716 -6.38281,29.99219 l 0,122.48438 2.1875,-0.0547 c 0,0 1.31722,12.76649 1.82812,19.16406 0.75235,9.42105 2.76167,18.89284 1.82031,28.29688 -1.16144,11.60277 -9.125,33.77344 -9.125,33.77344 l -17.34375,2.73437 -10.95312,-7.30469 -2.73438,8.21875 -8.21875,3.64845 -16.42187,0.91405 -9.13281,-13.6875 -18.25,10.95313 -17.34376,-3.65625 c 0,0 -9.29916,-24.59048 -11.86719,-37.42188 -2.03787,-10.18241 -4.51374,-20.80049 -2.73438,-31.03125 0.74642,-4.29162 5.47657,-11.86718 5.47657,-11.86718 l 38.44532,-0.91407 -37.90626,0 0,-123.34375 c -4.09123,-8.37503 -6.38281,-18.50144 -6.38281,-29.99219 1.57929,-40.08185 10.43295,-54.77231 35.00001,-79.32812 l 0,-10.32031 c -1.04675,-0.0805 -2.08975,-0.16377 -3.125,-0.25 l 4.32031,-11.21094 -0.66406,-0.88281 -0.46094,-2.74219 3.19531,-2.28125 0,-4.10156 -2.05469,-1.82812 2.05469,-1.82813 0.22656,-0.91406 -2.96093,-2.73437 3.19531,-2.28125 0,-1.14063 -1.14063,-0.6875 1.36719,-0.91406 0.45313,-3.1875 z" id="path5205" inkscape:connector-curvature="0"/>
  </g>
  <metadata>
    <rdf:RDF>
      <cc:Work>
        <dc:format>image/svg+xml</dc:format>
        <dc:type rdf:resource="http://purl.org/dc/dcmitype/StillImage"/>
        <cc:license rdf:resource="http://creativecommons.org/licenses/publicdomain/"/>
        <dc:publisher>
          <cc:Agent rdf:about="http://openclipart.org/">
            <dc:title>Open Clip Art Library</dc:title>
          </cc:Agent>
        </dc:publisher>
        <dc:title>Pet bottle</dc:title>
        <dc:date>2012-05-19T08:05:53</dc:date>
        <dc:description>dedicated to world environment day WED  June 2012</dc:description>
        <dc:source>http://openclipart.org/detail/170118/pet-bottle-by-netalloy</dc:source>
        <dc:creator>
          <cc:Agent>
            <dc:title>netalloy</dc:title>
          </cc:Agent>
        </dc:creator>
        <dc:subject>
          <rdf:Bag>
            <rdf:li>Pet bottle</rdf:li>
            <rdf:li>clip art</rdf:li>
            <rdf:li>clipart</rdf:li>
            <rdf:li>plastic bottle</rdf:li>
          </rdf:Bag>
        </dc:subject>
      </cc:Work>
      <cc:License rdf:about="http://creativecommons.org/licenses/publicdomain/">
        <cc:permits rdf:resource="http://creativecommons.org/ns#Reproduction"/>
        <cc:permits rdf:resource="http://creativecommons.org/ns#Distribution"/>
        <cc:permits rdf:resource="http://creativecommons.org/ns#DerivativeWorks"/>
      </cc:License>
    </rdf:RDF>
  </metadata>
</svg>
